<svg xmlns="http://www.w3.org/2000/svg" viewBox="26.930000000000007 64.82 521.13 445.35"> <svg xmlns="http://www.w3.org/2000/svg" xmlns:xlink="http://www.w3.org/1999/xlink" version="1.1" id="Calque_1" x="173" y="134" viewBox="-5 -5 873.400146484375 824.1000366210938" xml:space="preserve" height="214" width="227" preserveAspectRatio="xMinYMin" enable-background="new 0 0 863.4 814.1" style="overflow: visible;"><path class="st0" d="M204.8,546.2c4.1,16.9,12.8,32,26.1,43.6l147,129c32,27.3,79,27.3,110.4-0.6l144.7-129  c12.8-11.6,21.5-26.7,25.6-43.6L733,223.1c9.9-43.6-16.3-87.2-59.3-98.8l-240-65.7l-243.5,66.2c-43,11.6-69.1,55.2-59.3,98.8  L204.8,546.2z" style="fill: #DE3A3A; fill-opacity: 1;"></path><path class="st1" d="M433.8,58.7l240,65.7c43,11.6,69.1,55.2,59.3,98.8l-74.4,322.5c-4.1,16.9-12.8,32-25.6,43.6l-144.7,129   C457,746.1,410,746.1,378,718.8l-147-129c-13.4-11.6-22.1-26.7-26.1-43.6L131,223.7c-9.9-43.6,16.3-87.2,59.3-98.8L433.8,58.7    M434.4,0L122.9,84.3c-43,11.6-69.1,55.2-59.3,98.8l90.6,392.2c4.1,16.9,12.8,32.5,26.1,43.6l198.1,174.3   c31.4,27.9,79,27.3,110.4-0.6L684,618.3c12.8-11.6,22.1-26.7,25.6-43.6l90.6-392.8c9.9-43.6-16.3-87.2-59.3-98.8L434.4,0L434.4,0z" style="fill: #545454; fill-opacity: 1;"></path><path class="st2" d="M434.9,0h-0.6L122.9,84.3c-43,11.6-69.1,55.2-59.3,98.8l90.6,392.2c4.1,16.9,12.8,32.5,26.1,43.6l198.1,174.3  c16.3,13.9,36,20.9,55.8,20.9V0H434.9z" style="opacity: 0.2; enable-background: new;"></path><path class="st3" d="M269.9,181.3l56.9,34.9l-1.2,65.7l-58.1,30.8l-56.9-34.9l1.2-65.7L269.9,181.3 M271.1,154.6l-81.9,43.6   l-1.7,92.4l79.6,49.4l81.9-43.6l1.7-93L271.1,154.6L271.1,154.6z" style="fill: #FFFFFF;"></path><path class="st3" d="M626.7,377.1c15.7-37.2,13.4-73.8-2.9-108.7c-20.9-44.7-58.1-73.8-105.8-92.4c-15.7-2.9-75.5-26.7-142.9,13.4  c-10.5,8.1-10.5,10.5,0,18.6c26.1,18.6,52.9,34.3,81.9,52.9c20.9,13.4,32,34.3,26.1,61c-5.2,29.1-20.9,52.9-42.4,71.5  c-23.8,20.9-47.6,23.8-73.8,8.1c-26.1-15.7-55.8-34.3-81.9-50c-8.1-5.2-13.4-2.9-15.7,5.2c-5.2,23.8-8.1,47.6,0,68.6  c13.4,63.3,76.7,111,145.3,113.9c20.9,0,42.4-2.9,63.3-10.5c10.5-5.2,18.6-2.9,26.1,5.2c10.5,13.4,23.8,23.8,34.3,34.3  c15.7,15.7,34.9,34.3,56.4,55.2l37.8-33.7c3.5-3.5,7-7,9.9-10.5c-26.7-26.7-51.1-51.1-72.1-72.1c-5.2-5.2-10.5-10.5-10.5-18.6  c0-10.5,5.2-18.6,13.4-23.8c8.1-5.2,15.7-2.9,23.8,2.9c2.9,2.9,5.2,5.2,8.1,8.1c15.7,15.7,34.9,34.9,56.4,56.4l16.9-73.2  c-17.4-17.4-33.7-33.7-47.1-47.1C619.1,395.7,619.1,395.7,626.7,377.1z" style="fill: #FFFFFF;"></path><path class="st0" d="M841.9,506.7h-1.2c-9.3,0-16.9-5.8-19.8-14.5c-3.5-10.5-7.6-20.9-12.8-30.2c-4.1-8.1-2.3-18,4.1-24.4l0.6-0.6  c8.1-8.1,8.1-21.5,0-29.6L788.4,383c-8.1-8.1-21.5-8.1-29.6,0l-0.6,0.6c-1.7,1.7-3.5,2.8-5.2,3.7l-16.2,70.1  c22.5,22,37.1,53.5,37.1,87.7c0,67.4-54.6,122.6-122.6,122.6c-7,0-13.9-0.6-20.3-1.7l-48.2,43c5.2,2.3,10.5,4.1,16.3,5.8  c8.7,2.9,14.5,11,14.5,19.8v1.2c0,11.6,9.3,20.9,20.9,20.9h34.3c11.6,0,20.9-9.3,20.9-20.9v-1.2c0-9.3,5.8-16.9,14.5-19.8  c10.5-3.5,20.9-7.6,30.2-12.8c8.1-4.1,18-2.3,24.4,4.1l0.6,0.6c8.1,8.1,21.5,8.1,29.6,0l24.4-24.4c8.1-8.1,8.1-21.5,0-29.6l-0.6-0.6  c-6.4-6.4-8.1-16.3-4.1-24.4c5.2-9.9,9.3-19.8,12.8-30.2c2.9-8.7,11-14.5,19.8-14.5h1.2c11.6,0,20.9-9.3,20.9-20.9v-34.3  C862.9,516,853.6,506.7,841.9,506.7z" style="fill: #545454; fill-opacity: 1;"></path><path class="st0" d="M104.6,383.5l-0.6-0.6c-8.1-8.1-21.5-8.1-29.6,0L50,407.3c-8.1,8.1-8.1,21.5,0,29.6l0.6,0.6  c6.4,6.4,8.1,16.3,4.1,24.4c-5.2,9.9-9.3,19.8-12.8,30.2c-2.9,8.7-11,14.5-19.8,14.5h-1.2C9.3,506.7,0,516,0,527.6v34.3  c0,11.6,9.3,20.9,20.9,20.9h1.2c9.3,0,16.9,5.8,19.8,14.5c3.5,10.5,7.6,20.9,12.8,30.2c4.1,8.1,2.3,18-4.1,24.4l-0.6,0.6  c-8.1,8.1-8.1,21.5,0,29.6l24.4,24.4c8.1,8.1,21.5,8.1,29.6,0l0.6-0.6c6.4-6.4,16.3-8.1,24.4-4.1c9.9,5.2,19.8,9.3,30.2,12.8  c8.7,2.9,14.5,11,14.5,19.8v1.2c0,11.6,9.3,20.9,20.9,20.9h34.3c11.6,0,20.9-9.3,20.9-20.9v-1.2c0-9.3,5.8-16.9,14.5-19.8  c5.8-1.7,11.6-4.1,17.4-6.4l-48.2-42.4c-8.1,0-15.1,1.2-22.1,1.2C144,667,88.8,612.4,88.8,544.4c0-34.6,14.3-65.8,37.8-88.4  L111,387.9C108.8,386.8,106.2,385.6,104.6,383.5z" style="fill: #545454; fill-opacity: 1;"></path><path class="st2" d="M709.8,574.7l82.7-358.5l-66.7-49.7c8.7,16.9,11.7,36.8,7.2,56.7l-74.4,322.5c-4.1,16.9-12.8,32-25.6,43.6  l-144.7,129c-0.9,0.8-1.9,1.6-2.8,2.4l32.8,45.7l165.8-148C697,606.7,706.3,591.5,709.8,574.7z" style="opacity: 0.2; enable-background: new; fill-opacity: 1;"></path></svg> <svg y="418" viewBox="2.0999999046325684 6 381.1300048828125 21.190000534057617" x="96" height="21" width="381" style="overflow: visible;"><g fill="#545454" fill-opacity="1" style=""><path d="M13.81 26.90L9.67 18.96L5.68 18.96L5.68 26.90L2.10 26.90L2.10 6.29L9.35 6.29Q12.91 6.29 14.85 7.89Q16.79 9.49 16.79 12.52L16.79 12.52Q16.79 14.58 15.80 15.98Q14.80 17.37 13.01 18.13L13.01 18.13L17.64 26.72L17.64 26.90L13.81 26.90ZM5.68 9.18L5.68 16.09L9.36 16.09Q11.17 16.09 12.19 15.17Q13.21 14.26 13.21 12.67L13.21 12.67Q13.21 11.02 12.27 10.11Q11.33 9.20 9.46 9.18L9.46 9.18L5.68 9.18ZM33.42 26.90L31.73 22.10L23.75 22.10L22.08 26.90L18.35 26.90L26.14 6.29L29.35 6.29L37.16 26.90L33.42 26.90ZM27.74 10.66L24.75 19.22L30.73 19.22L27.74 10.66ZM55.85 6.29L55.85 26.90L52.27 26.90L43.08 12.28L43.08 26.90L39.49 26.90L39.49 6.29L43.08 6.29L52.29 20.97L52.29 6.29L55.85 6.29ZM74.57 6.29L74.57 9.18L68.14 9.18L68.14 26.90L64.58 26.90L64.58 9.18L58.21 9.18L58.21 6.29L74.57 6.29ZM87.82 21.59L87.82 21.59Q87.82 20.23 86.87 19.50Q85.91 18.76 83.42 18.01Q80.93 17.26 79.45 16.34L79.45 16.34Q76.63 14.57 76.63 11.72L76.63 11.72Q76.63 9.23 78.67 7.62Q80.70 6.00 83.94 6.00L83.94 6.00Q86.09 6.00 87.78 6.80Q89.46 7.59 90.43 9.06Q91.39 10.52 91.39 12.31L91.39 12.31L87.82 12.31Q87.82 10.69 86.81 9.78Q85.80 8.86 83.91 8.86L83.91 8.86Q82.16 8.86 81.19 9.61Q80.22 10.37 80.22 11.71L80.22 11.71Q80.22 12.84 81.27 13.60Q82.31 14.36 84.72 15.07Q87.13 15.79 88.59 16.70Q90.04 17.62 90.72 18.80Q91.40 19.98 91.40 21.57L91.40 21.57Q91.40 24.14 89.43 25.67Q87.45 27.19 84.07 27.19L84.07 27.19Q81.83 27.19 79.96 26.36Q78.08 25.53 77.04 24.07Q76.00 22.61 76.00 20.67L76.00 20.67L79.58 20.67Q79.58 22.43 80.74 23.39Q81.90 24.36 84.07 24.36L84.07 24.36Q85.94 24.36 86.88 23.60Q87.82 22.84 87.82 21.59ZM118.22 15.99L118.22 17.13Q118.22 20.16 117.18 22.45Q116.13 24.74 114.18 25.96Q112.23 27.19 109.70 27.19L109.70 27.19Q107.19 27.19 105.23 25.96Q103.27 24.74 102.20 22.47Q101.13 20.21 101.12 17.25L101.12 17.25L101.12 16.09Q101.12 13.07 102.19 10.76Q103.26 8.45 105.20 7.23Q107.15 6.00 109.67 6.00Q112.19 6.00 114.14 7.21Q116.08 8.43 117.15 10.70Q118.21 12.97 118.22 15.99L118.22 15.99ZM114.64 17.13L114.64 16.06Q114.64 12.63 113.34 10.80Q112.05 8.98 109.67 8.98L109.67 8.98Q107.35 8.98 106.04 10.80Q104.73 12.62 104.70 15.94L104.70 15.94L104.70 17.13Q104.70 20.53 106.02 22.39Q107.35 24.24 109.70 24.24L109.70 24.24Q112.08 24.24 113.36 22.43Q114.64 20.62 114.64 17.13L114.64 17.13ZM133.67 15.31L133.67 18.17L125.37 18.17L125.37 26.90L121.79 26.90L121.79 6.29L134.89 6.29L134.89 9.18L125.37 9.18L125.37 15.31L133.67 15.31ZM158.17 26.90L156.48 22.10L148.50 22.10L146.83 26.90L143.10 26.90L150.89 6.29L154.10 6.29L161.91 26.90L158.17 26.90ZM152.49 10.66L149.50 19.22L155.48 19.22L152.49 10.66ZM187.82 6.29L187.82 26.90L184.24 26.90L175.05 12.28L175.05 26.90L171.47 26.90L171.47 6.29L175.05 6.29L184.27 20.97L184.27 6.29L187.82 6.29ZM208.51 15.99L208.51 17.13Q208.51 20.16 207.46 22.45Q206.41 24.74 204.47 25.96Q202.52 27.19 199.98 27.19L199.98 27.19Q197.48 27.19 195.52 25.96Q193.56 24.74 192.49 22.47Q191.42 20.21 191.40 17.25L191.40 17.25L191.40 16.09Q191.40 13.07 192.47 10.76Q193.54 8.45 195.49 7.23Q197.44 6.00 199.96 6.00Q202.48 6.00 204.42 7.21Q206.37 8.43 207.43 10.70Q208.49 12.97 208.51 15.99L208.51 15.99ZM204.93 17.13L204.93 16.06Q204.93 12.63 203.63 10.80Q202.33 8.98 199.96 8.98L199.96 8.98Q197.63 8.98 196.32 10.80Q195.01 12.62 194.99 15.94L194.99 15.94L194.99 17.13Q194.99 20.53 196.31 22.39Q197.63 24.24 199.98 24.24L199.98 24.24Q202.36 24.24 203.64 22.43Q204.93 20.62 204.93 17.13L204.93 17.13ZM213.85 6.29L219.03 22.42L224.27 6.29L228.21 6.29L220.79 26.90L217.32 26.90L209.92 6.29L213.85 6.29ZM234.31 6.29L234.31 26.90L230.74 26.90L230.74 6.29L234.31 6.29ZM250.88 20.19L254.44 20.19Q254.13 23.49 252.01 25.34Q249.88 27.19 246.36 27.19L246.36 27.19Q243.89 27.19 242.02 26.02Q240.14 24.85 239.12 22.70Q238.10 20.55 238.06 17.70L238.06 17.70L238.06 15.77Q238.06 12.86 239.09 10.63Q240.13 8.41 242.06 7.21Q243.99 6.00 246.53 6.00L246.53 6.00Q249.94 6.00 252.02 7.86Q254.10 9.71 254.44 13.10L254.44 13.10L250.88 13.10Q250.62 10.88 249.58 9.89Q248.54 8.91 246.53 8.91L246.53 8.91Q244.19 8.91 242.94 10.61Q241.69 12.32 241.66 15.62L241.66 15.62L241.66 17.45Q241.66 20.79 242.85 22.54Q244.05 24.30 246.36 24.30L246.36 24.30Q248.47 24.30 249.53 23.35Q250.59 22.40 250.88 20.19L250.88 20.19ZM269.69 14.87L269.69 17.70L261.23 17.70L261.23 24.04L271.12 24.04L271.12 26.90L257.64 26.90L257.64 6.29L271.03 6.29L271.03 9.18L261.23 9.18L261.23 14.87L269.69 14.87ZM293.31 14.87L293.31 17.70L284.85 17.70L284.85 24.04L294.74 24.04L294.74 26.90L281.26 26.90L281.26 6.29L294.64 6.29L294.64 9.18L284.85 9.18L284.85 14.87L293.31 14.87ZM300.42 6.29L304.75 13.74L309.09 6.29L313.22 6.29L306.99 16.51L313.36 26.90L309.19 26.90L304.75 19.34L300.31 26.90L296.15 26.90L302.53 16.51L296.29 6.29L300.42 6.29ZM323.86 19.24L319.59 19.24L319.59 26.90L316.01 26.90L316.01 6.29L323.90 6.29Q327.35 6.29 329.39 8.09Q331.42 9.88 331.42 12.84L331.42 12.84Q331.42 15.87 329.43 17.56Q327.44 19.24 323.86 19.24L323.86 19.24ZM319.59 9.18L319.59 16.37L323.90 16.37Q325.81 16.37 326.82 15.47Q327.82 14.57 327.82 12.87L327.82 12.87Q327.82 11.20 326.80 10.20Q325.78 9.20 324.00 9.18L324.00 9.18L319.59 9.18ZM346.60 14.87L346.60 17.70L338.13 17.70L338.13 24.04L348.03 24.04L348.03 26.90L334.55 26.90L334.55 6.29L347.93 6.29L347.93 9.18L338.13 9.18L338.13 14.87L346.60 14.87ZM362.66 26.90L358.52 18.96L354.53 18.96L354.53 26.90L350.95 26.90L350.95 6.29L358.20 6.29Q361.76 6.29 363.70 7.89Q365.64 9.49 365.64 12.52L365.64 12.52Q365.64 14.58 364.65 15.98Q363.65 17.37 361.86 18.13L361.86 18.13L366.49 26.72L366.49 26.90L362.66 26.90ZM354.53 9.18L354.53 16.09L358.21 16.09Q360.02 16.09 361.04 15.17Q362.06 14.26 362.06 12.67L362.06 12.67Q362.06 11.02 361.12 10.11Q360.18 9.20 358.31 9.18L358.31 9.18L354.53 9.18ZM383.23 6.29L383.23 9.18L376.80 9.18L376.80 26.90L373.25 26.90L373.25 9.18L366.88 9.18L366.88 6.29L383.23 6.29Z" transform="translate(0, 0)"></path></g></svg> <svg y="356" viewBox="2.869999885559082 13.300000190734863 319.69000244140625 50.400001525878906" x="136" height="50" width="319" style="overflow: visible;"><g fill="#000" style=""><path d="M2.87 63.00L2.87 14L12.53 14L20.02 43.33L20.16 43.33L20.16 14L27.02 14L27.02 63.00L19.11 63.00L9.87 27.23L9.73 27.23L9.73 63.00L2.87 63.00ZM43.89 63.70Q38.22 63.70 35.21 60.48Q32.20 57.26 32.20 51.38L32.20 51.38L32.20 25.62Q32.20 19.74 35.21 16.52Q38.22 13.30 43.89 13.30L43.89 13.30Q49.56 13.30 52.57 16.52Q55.58 19.74 55.58 25.62L55.58 25.62L55.58 51.38Q55.58 57.26 52.57 60.48Q49.56 63.70 43.89 63.70L43.89 63.70ZM43.89 56.70Q47.88 56.70 47.88 51.87L47.88 51.87L47.88 25.13Q47.88 20.30 43.89 20.30L43.89 20.30Q39.90 20.30 39.90 25.13L39.90 25.13L39.90 51.87Q39.90 56.70 43.89 56.70L43.89 56.70ZM66.50 63.00L66.50 21L58.45 21L58.45 14L82.25 14L82.25 21L74.20 21L74.20 63.00L66.50 63.00ZM95.13 63.00L103.11 14L113.54 14L121.52 63.00L113.82 63.00L112.42 53.27L112.42 53.41L103.67 53.41L102.27 63.00L95.13 63.00ZM104.58 46.76L111.51 46.76L108.08 22.54L107.94 22.54L104.58 46.76ZM125.23 63.00L125.23 14L134.89 14L142.38 43.33L142.52 43.33L142.52 14L149.38 14L149.38 63.00L141.47 63.00L132.23 27.23L132.09 27.23L132.09 63.00L125.23 63.00ZM166.32 63.00L166.32 14L187.32 14L187.32 21L174.02 21L174.02 33.95L184.59 33.95L184.59 40.95L174.02 40.95L174.02 56.00L187.32 56.00L187.32 63.00L166.32 63.00ZM189.77 63.00L198.66 37.94L190.19 14L198.31 14L203.49 29.82L203.63 29.82L208.95 14L216.23 14L207.76 37.94L216.65 63.00L208.53 63.00L202.93 45.92L202.79 45.92L197.05 63.00L189.77 63.00ZM220.29 63.00L220.29 14L231.63 14Q237.37 14 240.24 17.08Q243.11 20.16 243.11 26.11L243.11 26.11L243.11 30.94Q243.11 36.89 240.24 39.97Q237.37 43.05 231.63 43.05L231.63 43.05L227.99 43.05L227.99 63.00L220.29 63.00ZM227.99 36.05L231.63 36.05Q233.52 36.05 234.47 35Q235.41 33.95 235.41 31.43L235.41 31.43L235.41 25.62Q235.41 23.10 234.47 22.05Q233.52 21 231.63 21L231.63 21L227.99 21L227.99 36.05ZM247.31 63.00L247.31 14L268.31 14L268.31 21L255.01 21L255.01 33.95L265.58 33.95L265.58 40.95L255.01 40.95L255.01 56.00L268.31 56.00L268.31 63.00L247.31 63.00ZM272.72 63.00L272.72 14L284.13 14Q290.08 14 292.81 16.77Q295.54 19.53 295.54 25.27L295.54 25.27L295.54 28.28Q295.54 35.91 290.50 37.94L290.50 37.94L290.50 38.08Q293.30 38.92 294.46 41.51Q295.61 44.10 295.61 48.44L295.61 48.44L295.61 57.05Q295.61 59.15 295.75 60.45Q295.89 61.74 296.45 63.00L296.45 63.00L288.61 63.00Q288.19 61.81 288.05 60.76Q287.91 59.71 287.91 56.98L287.91 56.98L287.91 48.02Q287.91 44.66 286.83 43.33Q285.74 42 283.08 42L283.08 42L280.42 42L280.42 63.00L272.72 63.00ZM280.42 35L283.22 35Q285.53 35 286.69 33.81Q287.84 32.62 287.84 29.82L287.84 29.82L287.84 26.04Q287.84 23.38 286.90 22.19Q285.95 21 283.92 21L283.92 21L280.42 21L280.42 35ZM306.81 63.00L306.81 21L298.76 21L298.76 14L322.56 14L322.56 21L314.51 21L314.51 63.00L306.81 63.00Z" transform="translate(0, 0)"></path></g></svg></svg>